# xmcd CD database file
#
# Track frame offsets:
#	182
#	29515
#	53595
#	100510
#	111880
#	134155
#	174352
#
# Disc length: 2814 seconds
#
# Revision: 0
# Processed by: cddbd v1.5.1PL0 Copyright (c) Steve Scherf et al.
# Submitted via: CDex 1.51
#
DISCID=570afc07
DTITLE=Ray Mantilla Space Station and Steve Grossman - Synergy
DYEAR=1986
DGENRE=Jazz
TTITLE0=Caminos De Macchu Picchu
TTITLE1=Paisaje
TTITLE2=Star Eyes
TTITLE3=Synergy
TTITLE4=Brother Ray
TTITLE5=Eronel
TTITLE6=Layè
EXTD=YEAR: 1986
EXTT0=
EXTT1=
EXTT2=
EXTT3=
EXTT4=
EXTT5=
EXTT6=
PLAYORDER=
